<mxfile host="65bd71144e">
    <diagram id="hQEppKssuoCvksK7inkm" name="Page-1">
        <mxGraphModel dx="554" dy="450" grid="1" gridSize="10" guides="1" tooltips="1" connect="1" arrows="1" fold="1" page="1" pageScale="1" pageWidth="850" pageHeight="1100" math="0" shadow="0">
            <root>
                <mxCell id="0"/>
                <mxCell id="1" parent="0"/>
                <mxCell id="8" value="" style="edgeStyle=none;html=1;" parent="1" source="37" target="40" edge="1">
                    <mxGeometry relative="1" as="geometry">
                        <mxPoint x="510" y="195" as="sourcePoint"/>
                        <mxPoint x="550" y="195" as="targetPoint"/>
                    </mxGeometry>
                </mxCell>
                <mxCell id="10" value="" style="edgeStyle=none;html=1;" parent="1" source="40" target="42" edge="1">
                    <mxGeometry relative="1" as="geometry">
                        <mxPoint x="610" y="225" as="sourcePoint"/>
                        <mxPoint x="610" y="265" as="targetPoint"/>
                    </mxGeometry>
                </mxCell>
                <mxCell id="12" value="" style="edgeStyle=none;html=1;" parent="1" source="42" target="41" edge="1">
                    <mxGeometry relative="1" as="geometry">
                        <mxPoint x="550" y="295" as="sourcePoint"/>
                        <mxPoint x="510" y="295" as="targetPoint"/>
                    </mxGeometry>
                </mxCell>
                <mxCell id="14" value="" style="edgeStyle=none;html=1;" parent="1" source="41" target="43" edge="1">
                    <mxGeometry relative="1" as="geometry">
                        <mxPoint x="450" y="325" as="sourcePoint"/>
                        <mxPoint x="450" y="365" as="targetPoint"/>
                    </mxGeometry>
                </mxCell>
                <mxCell id="16" value="" style="edgeStyle=none;html=1;" parent="1" source="43" target="47" edge="1">
                    <mxGeometry relative="1" as="geometry">
                        <mxPoint x="484.090909090909" y="425" as="sourcePoint"/>
                        <mxPoint x="534" y="475" as="targetPoint"/>
                    </mxGeometry>
                </mxCell>
                <mxCell id="29" value="" style="edgeStyle=none;html=1;" parent="1" source="47" target="48" edge="1">
                    <mxGeometry relative="1" as="geometry">
                        <mxPoint x="571.6666666666665" y="535" as="sourcePoint"/>
                        <mxPoint x="575" y="585" as="targetPoint"/>
                    </mxGeometry>
                </mxCell>
                <mxCell id="19" value="" style="edgeStyle=none;html=1;" parent="1" source="43" target="46" edge="1">
                    <mxGeometry relative="1" as="geometry">
                        <mxPoint x="417.27272727272725" y="425" as="sourcePoint"/>
                        <mxPoint x="362.72727272727275" y="485" as="targetPoint"/>
                    </mxGeometry>
                </mxCell>
                <mxCell id="25" value="" style="edgeStyle=none;html=1;" parent="1" source="54" target="55" edge="1">
                    <mxGeometry relative="1" as="geometry">
                        <mxPoint x="733.242" y="865" as="sourcePoint"/>
                        <mxPoint x="734" y="875" as="targetPoint"/>
                    </mxGeometry>
                </mxCell>
                <mxCell id="27" value="" style="edgeStyle=none;html=1;" parent="1" target="54" edge="1">
                    <mxGeometry relative="1" as="geometry">
                        <mxPoint x="733.5349999999999" y="745" as="sourcePoint"/>
                        <mxPoint x="734.5116666666668" y="805" as="targetPoint"/>
                    </mxGeometry>
                </mxCell>
                <mxCell id="31" value="" style="edgeStyle=none;html=1;" parent="1" source="48" target="49" edge="1">
                    <mxGeometry relative="1" as="geometry">
                        <mxPoint x="585" y="645" as="sourcePoint"/>
                        <mxPoint x="585" y="705" as="targetPoint"/>
                    </mxGeometry>
                </mxCell>
                <mxCell id="33" value="" style="edgeStyle=none;html=1;" parent="1" target="50" edge="1">
                    <mxGeometry relative="1" as="geometry">
                        <mxPoint x="585" y="605" as="sourcePoint"/>
                        <mxPoint x="669.1399999999999" y="625.4832399280956" as="targetPoint"/>
                    </mxGeometry>
                </mxCell>
                <mxCell id="34" value="" style="edgeStyle=none;html=1;" parent="1" source="50" target="52" edge="1">
                    <mxGeometry relative="1" as="geometry">
                        <mxPoint x="729.1399999999999" y="665" as="sourcePoint"/>
                        <mxPoint x="735" y="685" as="targetPoint"/>
                    </mxGeometry>
                </mxCell>
                <mxCell id="38" value="" style="edgeStyle=none;html=1;" edge="1" parent="1" source="37" target="59">
                    <mxGeometry relative="1" as="geometry">
                        <mxPoint x="350" y="195" as="targetPoint"/>
                    </mxGeometry>
                </mxCell>
                <mxCell id="37" value="Валидация данных" style="rounded=0;whiteSpace=wrap;html=1;" vertex="1" parent="1">
                    <mxGeometry x="390" y="165" width="120" height="60" as="geometry"/>
                </mxCell>
                <mxCell id="40" value="Генерация uuid token&amp;nbsp;" style="rounded=0;whiteSpace=wrap;html=1;" vertex="1" parent="1">
                    <mxGeometry x="550" y="165" width="120" height="60" as="geometry"/>
                </mxCell>
                <mxCell id="41" value="Отправка пользователю приглашения" style="rounded=0;whiteSpace=wrap;html=1;" vertex="1" parent="1">
                    <mxGeometry x="390" y="265" width="120" height="60" as="geometry"/>
                </mxCell>
                <mxCell id="42" value="Сохранение token в redisDB" style="rounded=0;whiteSpace=wrap;html=1;" vertex="1" parent="1">
                    <mxGeometry x="550" y="265" width="120" height="60" as="geometry"/>
                </mxCell>
                <mxCell id="43" value="Принятие этого приглашения" style="rhombus;whiteSpace=wrap;html=1;" vertex="1" parent="1">
                    <mxGeometry x="375" y="365" width="150" height="80" as="geometry"/>
                </mxCell>
                <mxCell id="46" value="Токен перестал быть действительным через 1 день" style="rounded=0;whiteSpace=wrap;html=1;" vertex="1" parent="1">
                    <mxGeometry x="290" y="475" width="120" height="60" as="geometry"/>
                </mxCell>
                <mxCell id="47" value="Пользователь&amp;nbsp; перешёл по ссылке" style="rounded=0;whiteSpace=wrap;html=1;" vertex="1" parent="1">
                    <mxGeometry x="490" y="475" width="120" height="60" as="geometry"/>
                </mxCell>
                <mxCell id="48" value="Сравнение с существующим токеном в redisDB" style="rhombus;whiteSpace=wrap;html=1;" vertex="1" parent="1">
                    <mxGeometry x="470" y="565" width="160" height="80" as="geometry"/>
                </mxCell>
                <mxCell id="49" value="Токен не действительный" style="rounded=0;whiteSpace=wrap;html=1;" vertex="1" parent="1">
                    <mxGeometry x="490" y="685" width="120" height="60" as="geometry"/>
                </mxCell>
                <mxCell id="50" value="Токен действительный" style="rounded=0;whiteSpace=wrap;html=1;" vertex="1" parent="1">
                    <mxGeometry x="675" y="575" width="120" height="60" as="geometry"/>
                </mxCell>
                <mxCell id="52" value="Метод добавление пользователя по токену добавил пользователя" style="rounded=0;whiteSpace=wrap;html=1;" vertex="1" parent="1">
                    <mxGeometry x="675" y="685" width="120" height="60" as="geometry"/>
                </mxCell>
                <mxCell id="54" value="Добавить чат пользователю на аккаунт" style="rounded=0;whiteSpace=wrap;html=1;" vertex="1" parent="1">
                    <mxGeometry x="675" y="785" width="120" height="60" as="geometry"/>
                </mxCell>
                <mxCell id="55" value="Добавить в чат пользователя" style="ellipse;whiteSpace=wrap;html=1;" vertex="1" parent="1">
                    <mxGeometry x="675" y="885" width="120" height="60" as="geometry"/>
                </mxCell>
                <mxCell id="59" value="Пользователь нажимает пригласить пользователя в чат" style="ellipse;whiteSpace=wrap;html=1;" vertex="1" parent="1">
                    <mxGeometry x="220" y="165" width="130" height="60" as="geometry"/>
                </mxCell>
            </root>
        </mxGraphModel>
    </diagram>
</mxfile>